<?xml version="1.0" encoding="UTF-8"?>
<svg id="não_mono_poliamor" data-name="não mono/poliamor" xmlns="http://www.w3.org/2000/svg" width="1500" height="1000" viewBox="0 0 1500 1000">
  <defs>
    <style>
      .cls-1 {
        fill: blue;
      }

      .cls-2 {
        fill: red;
      }

      .cls-3 {
        fill: #ff0;
      }
    </style>
  </defs>
  <g>
    <rect class="cls-1" width="1500" height="333.3"/>
    <rect class="cls-2" y="333.3" width="1500" height="333.3"/>
    <rect y="666.7" width="1500" height="333.3"/>
  </g>
  <path class="cls-3" d="M663.8,426c-13.8,1.7-23.3,11.3-26.9,24.4-2.4-.2-10.8,2.2-10.8-1.8.1-14.9,11.4-41.4,24.5-49.4,19.2-11.8,66.7-9.1,89.8-8.7,34.7.5,81.5,6.8,114.9,2.8,7.8-.9,11.8-5.1,13.8-12.4h8.7c.5,14-2.3,34-16,40.9s-12.8,4.4-16.2,4.4h-29.4v152.5c0,9,8.6,21.8,18.5,22.6,26.1,2.3,29.2-40.7,29.4-58.9h10.9v19.8c0,10.9-8.1,32.3-15.1,41-16.5,20.7-55.5,21.7-72.5,1.4-7.6-9-13.6-28.1-13.6-39.7v-138.8h-65.6c-.6,46.8,2.9,94.7-7.8,140.6-6.1,26.1-18.3,57.3-51.1,51.6-12.1-2.1-20.1-9.8-23.8-21.3s-3.5-13.2-3.5-15.7v-26.7l11,.6c2.2,1.5-.7,17.2,10.9,24.6,23.3,15,37.7-23.3,41.7-40.2,8.7-36.5,7.2-76.3,7.5-113.6-9.3.8-20.3-1.1-29.4,0Z"/>
</svg>