<?xml version="1.0" encoding="UTF-8"?>
<svg id="Camada_2" data-name="Camada 2" xmlns="http://www.w3.org/2000/svg" width="1000" height="1000" viewBox="0 0 1000 1000">
  <defs>
    <style>
      .cls-1 {
        fill: #f7d10c;
      }

      .cls-2 {
        fill: #ff740d;
      }

      .cls-3 {
        fill: none;
      }

      .cls-4 {
        fill: #2223a1;
      }

      .cls-5 {
        fill: #dc1414;
      }

      .cls-6 {
        fill: #03991c;
      }

      .cls-7 {
        fill: #7f189b;
      }
    </style>
  </defs>
  <g id="Camada_5" data-name="Camada 5">
    <g>
      <path class="cls-7" d="M250.9,400.1h0c14.6,9.1,33.7,6.4,44.9-6.6C466.5,195.7,718.8,70.2,1000,70.2V0C697.7,0,426.3,134.8,242.8,347.6c-14,16.2-10.1,41.2,8.1,52.6ZM0,1000h70.2c0-79.8,10.1-157.4,29.2-231.3,4.6-17.8-5.5-36-22.9-41.8h0c-19.3-6.4-40,4.8-45.1,24.4C10.9,830.8,0,914.2,0,1000Z"/>
      <path class="cls-4" d="M722.9,196.9C390.1,312,150.5,628.5,150.5,1000h70.2c0-340.8,219.8-631,525-736.7,17.8-6.2,27.7-25.1,22.3-43.2h0c-5.7-19.1-26.2-29.8-45.1-23.3Z"/>
      <path class="cls-6" d="M391.9,752.7h0c15.8,3.2,31.7-4.8,38.6-19.3,100.6-213.8,318.1-362.2,569.5-362.2v-70.2c-279.2,0-520.9,164.6-632.8,402-9.8,20.7,2.2,45.2,24.7,49.7Z"/>
      <path class="cls-2" d="M650.1,938.5h0c16,0,29.7-10.9,34-26.3,38.4-138.4,165.5-240.1,316-240.1v-70.2c-183,0-337.6,124.1-384,292.6-6.1,22.2,11,44,34,44Z"/>
      <path class="cls-5" d="M866.1,791.7c-68.4,44.1-113.8,121-113.8,208.3h70.2c0-62.3,32.4-117.3,81.1-148.9,13.9-9,20.1-26.2,14.4-41.8h0c-7.7-21.1-33.1-29.7-51.9-17.5Z"/>
      <rect class="cls-3" width="1000" height="1000"/>
      <path class="cls-1" d="M795.6,491c-201.6,81.2-344.2,278.7-344.2,509h70.2c0-200.8,124.3-373,300-443.8,18.1-7.3,27-27.8,19.6-45.9h0c-7.3-17.9-27.7-26.5-45.7-19.3Z"/>
    </g>
  </g>
</svg>