<?xml version="1.0" encoding="UTF-8"?>
<svg id="não_mono_poliamor" data-name="não mono/poliamor" xmlns="http://www.w3.org/2000/svg" width="1500" height="1000" viewBox="0 0 1500 1000">
  <defs>
    <style>
      .cls-1 {
        fill: #f9bd02;
      }

      .cls-2 {
        fill: #e70050;
      }

      .cls-3 {
        fill: #00a0e5;
      }

      .cls-4 {
        fill: #fffffd;
      }

      .cls-5 {
        fill: #320a46;
      }
    </style>
  </defs>
  <g>
    <rect class="cls-3" width="1500" height="333.3"/>
    <rect class="cls-2" y="333.3" width="1500" height="333.3"/>
    <rect class="cls-5" y="666.7" width="1500" height="333.3"/>
  </g>
  <polyline class="cls-4" points="0 1000 663 333.3 331.5 0 0 0 0 1000"/>
  <path class="cls-1" d="M465.7,332.9c.2.2.2.6,0,.9l-141.1,140.1-10.2,10.1h0c-16.4,14.3-37.3,23.4-60.3,25.1-63.4,4.7-116.6-48.9-111.6-112.2,1.9-24.6,12.4-46.8,28.5-63.7.2-.2.2-.6,0-.8-16.1-16.9-26.6-39.1-28.5-63.8-5-63.9,49.2-117.5,113-112,26.8,2.3,50.7,14.9,67.9,33.7,4.3,4.8,8.9,9.4,13.5,13.9l128.9,128.6Z"/>
</svg>