<?xml version="1.0" encoding="UTF-8"?>
<svg id="Camada_2" data-name="Camada 2" xmlns="http://www.w3.org/2000/svg" width="1633.9" height="334.4" viewBox="0 0 1633.9 334.4">
  <defs>
    <style>
      .cls-1 {
        fill: #fff;
      }
    </style>
  </defs>
  <g id="Camada_5" data-name="Camada 5">
    <g>
      <g>
        <path class="cls-1" d="M83.9,133.8h0c4.9,3,11.3,2.1,15-2.2C156,65.4,240.4,23.5,334.4,23.5V0c-101.1,0-191.9,45.1-253.2,116.2-4.7,5.4-3.4,13.8,2.7,17.6ZM0,334.4h23.5c0-26.7,3.4-52.6,9.8-77.4,1.5-5.9-1.8-12-7.7-14h0c-6.4-2.1-13.4,1.6-15.1,8.2-6.9,26.6-10.5,54.5-10.5,83.2Z"/>
        <path class="cls-1" d="M241.8,65.8C130.5,104.3,50.3,210.2,50.3,334.4h23.5c0-114,73.5-211,175.6-246.4,6-2.1,9.3-8.4,7.5-14.4h0c-1.9-6.4-8.8-10-15.1-7.8Z"/>
        <path class="cls-1" d="M131.1,251.7h0c5.3,1.1,10.6-1.6,12.9-6.5,33.6-71.5,106.4-121.1,190.5-121.1v-23.5c-93.4,0-174.2,55.1-211.6,134.4-3.3,6.9.7,15.1,8.3,16.6Z"/>
        <path class="cls-1" d="M217.4,313.9h0c5.4,0,9.9-3.6,11.4-8.8,12.9-46.3,55.4-80.3,105.7-80.3v-23.5c-61.2,0-112.9,41.5-128.4,97.9-2,7.4,3.7,14.7,11.4,14.7Z"/>
        <path class="cls-1" d="M289.7,264.8c-22.9,14.8-38.1,40.5-38.1,69.7h23.5c0-20.8,10.8-39.2,27.1-49.8,4.7-3,6.7-8.8,4.8-14h0c-2.6-7-11.1-9.9-17.4-5.9Z"/>
        <path class="cls-1" d="M266.1,164.2c-67.4,27.1-115.1,93.2-115.1,170.2h23.5c0-67.1,41.6-124.7,100.3-148.4,6.1-2.4,9-9.3,6.6-15.3h0c-2.4-6-9.3-8.9-15.3-6.5Z"/>
      </g>
      <g>
        <path class="cls-1" d="M1211.2,79.1h49.8v73.4l72.3-72,1-1.3h59.7l-6.3,6.3-74.7,72.3,76.2,100.1,4.5,6h-57.1l-1.3-1.6-56.6-75.2-17.8,18.1v58.7h-49.8V79.1Z"/>
        <path class="cls-1" d="M1409.4,79.1h48.5v184.7h-48.5V79.1Z"/>
        <path class="cls-1" d="M1473.6,79.1h160.3v43.7h-54v140.9h-52.7V122.8h-53.7v-43.7Z"/>
      </g>
      <g>
        <path class="cls-1" d="M448.9,97.7c18-18,40.4-27,67.3-27s49.3,9,67.2,27c17.9,18,26.9,41,26.9,68.9s-5,38.3-14.9,53.7l14.7,14.7-28.8,28.8-14.9-15.2c-15.2,9.1-31.9,13.6-50,13.6-26.9,0-49.3-8.9-67.3-26.9-18-17.9-27-40.8-27-68.8s9-50.9,27-68.9ZM555,127c-10.3-10.3-23.2-15.5-38.8-15.5s-28.4,5.2-38.6,15.5c-10.2,10.3-15.3,23.5-15.3,39.6s5.1,29.3,15.3,39.6c10.2,10.3,23.1,15.5,38.6,15.5s12.9-1.1,19.4-3.4l-16-16,29.1-28.8,16.8,17c3.3-7.5,5-15.5,5-23.8,0-16.1-5.2-29.3-15.5-39.6Z"/>
        <path class="cls-1" d="M625.9,113.1h38.2v79.6c0,22.9,8.4,34.3,25.1,34.3s15.3-1.8,21.4-5.4c6-3.6,10.3-8.5,13-14.8v-93.8h38.2v149.2h-38.2v-23.2c-5.6,7.2-12.7,12.8-21.5,16.9-8.7,4.1-17.4,6.2-25.9,6.2-13.3,0-25-4.8-35.1-14.5-10.1-9.7-15.2-22.6-15.2-38.6v-95.9Z"/>
        <path class="cls-1" d="M852.8,110c19,0,35.1,6.4,48.1,19.3,13,12.8,19.5,31.2,19.5,55.1s-.2,9.3-.5,12.1h-104.3c1.7,9.6,6,17.2,12.7,22.9,6.7,5.7,14.7,8.5,24,8.5,13.8,0,24.3-5.8,31.4-17.6l32.7,16.5c-6.6,11-15.5,19.6-26.7,25.9-11.2,6.3-23.7,9.4-37.5,9.4-21.3,0-39.1-7.2-53.4-21.5-14.3-14.3-21.5-32.6-21.5-54.8s7.2-40.4,21.7-54.6c14.5-14.2,32.4-21.4,53.7-21.4ZM852.3,144c-7.5,0-14.3,2.1-20.4,6.2-6.1,4.1-10.7,9.7-13.6,16.9h63.9c0-5.4-2.3-10.6-6.9-15.6-4.6-5-12.3-7.5-22.9-7.5Z"/>
        <path class="cls-1" d="M1007.1,110c19,0,35.1,6.4,48.1,19.3,13,12.8,19.5,31.2,19.5,55.1s-.2,9.3-.5,12.1h-104.3c1.7,9.6,6,17.2,12.7,22.9,6.7,5.7,14.7,8.5,24,8.5,13.8,0,24.3-5.8,31.4-17.6l32.7,16.5c-6.6,11-15.5,19.6-26.7,25.9-11.2,6.3-23.7,9.4-37.5,9.4-21.3,0-39.1-7.2-53.4-21.5-14.3-14.3-21.5-32.6-21.5-54.8s7.2-40.4,21.7-54.6c14.5-14.2,32.4-21.4,53.7-21.4ZM1006.6,144c-7.5,0-14.3,2.1-20.4,6.2-6.1,4.1-10.7,9.7-13.6,16.9h63.9c0-5.4-2.3-10.6-6.9-15.6-4.6-5-12.3-7.5-22.9-7.5Z"/>
        <path class="cls-1" d="M1175.6,110v38c-16.2,0-28.2,4.4-35.8,13.1-7.6,8.7-11.4,19-11.4,30.6v70.6h-38.2V111.7h38.2v22.4c5.2-7.5,12-13.4,20.3-17.7,8.3-4.3,17.2-6.4,26.9-6.4Z"/>
      </g>
    </g>
  </g>
</svg>