<?xml version="1.0" encoding="UTF-8"?>
<svg id="Camada_2" data-name="Camada 2" xmlns="http://www.w3.org/2000/svg" width="1545.5" height="526.8" viewBox="0 0 1545.5 526.8">
  <defs>
    <style>
      .cls-1 {
        fill: #1e1e1e;
      }
    </style>
  </defs>
  <g id="Camada_5" data-name="Camada 5">
    <g>
      <g>
        <path class="cls-1" d="M573.9,286.8h64.7v95.3l93.9-93.6,1.4-1.7h77.6l-8.2,8.2-97,93.9,99.1,130,5.8,7.8h-74.2l-1.7-2-73.5-97.7-23.1,23.5v76.2h-64.7v-240Z"/>
        <path class="cls-1" d="M831.4,286.8h63v240h-63v-240Z"/>
        <path class="cls-1" d="M914.8,286.8h208.3v56.8h-70.1v183.1h-68.4v-183.1h-69.8v-56.8Z"/>
      </g>
      <g>
        <path class="cls-1" d="M601.3,35.1C624.7,11.7,653.9,0,688.8,0s64,11.7,87.3,35.1c23.3,23.4,34.9,53.2,34.9,89.5s-6.5,49.8-19.4,69.8l19.1,19.1-37.4,37.4-19.4-19.7c-19.7,11.8-41.4,17.7-65,17.7-34.9,0-64.1-11.6-87.5-34.9-23.4-23.3-35.1-53-35.1-89.3s11.7-66.1,35.1-89.5ZM739.2,73.2c-13.4-13.4-30.2-20.1-50.4-20.1s-36.9,6.7-50.2,20.1c-13.3,13.4-19.9,30.5-19.9,51.4s6.6,38,19.9,51.4c13.3,13.4,30,20.1,50.2,20.1s16.8-1.5,25.2-4.4l-20.8-20.8,37.8-37.4,21.8,22.1c4.3-9.8,6.5-20.1,6.5-31,0-20.9-6.7-38-20.1-51.4Z"/>
        <path class="cls-1" d="M831.4,55.1h49.7v103.5c0,29.7,10.9,44.6,32.7,44.6s19.9-2.3,27.7-7c7.8-4.7,13.4-11.1,16.8-19.2V55.1h49.7v193.9h-49.7v-30.2c-7.3,9.3-16.6,16.6-27.9,22-11.4,5.3-22.6,8-33.7,8-17.2,0-32.5-6.3-45.6-18.9-13.2-12.6-19.7-29.3-19.7-50.2V55.1Z"/>
        <path class="cls-1" d="M1126.2,51.1c24.7,0,45.6,8.3,62.5,25,16.9,16.7,25.4,40.6,25.4,71.6s-.2,12-.7,15.7h-135.5c2.3,12.5,7.8,22.4,16.5,29.8,8.7,7.4,19.1,11.1,31.1,11.1,17.9,0,31.5-7.6,40.8-22.8l42.5,21.4c-8.6,14.3-20.2,25.5-34.7,33.7-14.5,8.2-30.8,12.3-48.7,12.3-27.7,0-50.8-9.3-69.4-27.9-18.6-18.6-27.9-42.3-27.9-71.1s9.4-52.5,28.3-71c18.8-18.5,42.1-27.7,69.8-27.7ZM1125.5,95.3c-9.8,0-18.6,2.7-26.5,8-7.9,5.3-13.8,12.7-17.7,22h83.1c0-7-3-13.8-9-20.3-6-6.5-15.9-9.7-29.8-9.7Z"/>
        <path class="cls-1" d="M1326.7,51.1c24.7,0,45.6,8.3,62.5,25,16.9,16.7,25.4,40.6,25.4,71.6s-.2,12-.7,15.7h-135.5c2.3,12.5,7.8,22.4,16.5,29.8,8.7,7.4,19.1,11.1,31.1,11.1,17.9,0,31.5-7.6,40.8-22.8l42.5,21.4c-8.6,14.3-20.2,25.5-34.7,33.7-14.5,8.2-30.8,12.3-48.7,12.3-27.7,0-50.8-9.3-69.4-27.9-18.6-18.6-27.9-42.3-27.9-71.1s9.4-52.5,28.3-71c18.8-18.5,42.1-27.7,69.8-27.7ZM1326,95.3c-9.8,0-18.6,2.7-26.5,8-7.9,5.3-13.8,12.7-17.7,22h83.1c0-7-3-13.8-9-20.3-6-6.5-15.9-9.7-29.8-9.7Z"/>
        <path class="cls-1" d="M1545.5,51.1v49.4c-21.1,0-36.6,5.7-46.5,17-9.9,11.3-14.8,24.6-14.8,39.8v91.8h-49.7V53.3h49.7v29.1c6.8-9.8,15.6-17.4,26.4-23,10.8-5.6,22.4-8.3,34.9-8.3Z"/>
      </g>
      <g>
        <path class="cls-1" d="M132.2,210.8h0c7.7,4.8,17.7,3.4,23.6-3.5C245.7,103.1,378.7,37,526.8,37V0C367.5,0,224.5,71,127.9,183.1c-7.4,8.6-5.3,21.7,4.3,27.7ZM0,526.8h37c0-42.1,5.3-82.9,15.4-121.9,2.4-9.4-2.9-19-12.1-22h0c-10.1-3.4-21.1,2.5-23.8,12.9C5.7,437.7,0,481.6,0,526.8Z"/>
        <path class="cls-1" d="M380.8,103.7c-175.3,60.6-301.6,227.4-301.6,423.1h37c0-179.5,115.8-332.4,276.6-388.1,9.4-3.2,14.6-13.2,11.7-22.7h0c-3-10.1-13.8-15.7-23.7-12.2Z"/>
        <path class="cls-1" d="M206.4,396.5h0c8.3,1.7,16.7-2.5,20.3-10.2,53-112.6,167.6-190.8,300-190.8v-37c-147.1,0-274.4,86.7-333.3,211.8-5.2,10.9,1.2,23.8,13,26.2Z"/>
        <path class="cls-1" d="M342.4,494.4h0c8.4,0,15.6-5.7,17.9-13.9,20.2-72.9,87.2-126.5,166.4-126.5v-37c-96.4,0-177.8,65.4-202.3,154.1-3.2,11.7,5.8,23.2,17.9,23.2Z"/>
        <path class="cls-1" d="M456.2,417.1c-36,23.2-59.9,63.7-59.9,109.7h37c0-32.8,17-61.8,42.7-78.4,7.3-4.8,10.6-13.8,7.6-22h0c-4.1-11.1-17.4-15.7-27.4-9.2Z"/>
        <path class="cls-1" d="M419.1,258.6c-106.2,42.8-181.3,146.8-181.3,268.1h37c0-105.8,65.5-196.5,158-233.8,9.5-3.9,14.2-14.6,10.4-24.2h0c-3.8-9.4-14.6-14-24.1-10.2Z"/>
      </g>
    </g>
  </g>
</svg>